<svg width="240" height="74" viewBox="0 0 240 74" fill="none" xmlns="http://www.w3.org/2000/svg">
    <path
        d="M93.2833 44.904H101.725L99.3313 48H93.2833C89.1073 48 86.0293 45.354 86.0293 41.862C86.0293 38.334 89.1073 35.958 93.2833 35.958H101.725L99.3313 39.09H93.2833C91.2673 39.09 89.7553 40.296 89.7553 42.024C89.7553 43.734 91.2493 44.904 93.2833 44.904ZM117.275 35.958V48H113.567V43.356H106.403V48H102.659V35.958H106.403V40.224H113.567V35.958H117.275ZM138.307 48H124.303L126.553 44.904H129.577C130.297 44.904 131.143 44.904 131.719 44.94C131.395 44.508 130.891 43.77 130.495 43.194L128.335 40.008L122.683 48H118.273L125.995 37.11C126.499 36.408 127.237 35.76 128.407 35.76C129.523 35.76 130.261 36.354 130.783 37.11L138.307 48ZM154.143 45.66L156.357 48H151.371L148.689 44.814H142.965V48H139.239V41.844H149.715C150.867 41.844 151.767 41.322 151.767 40.494C151.767 39.558 150.993 39.09 149.715 39.09H139.239L141.669 35.958H149.409C152.145 35.958 155.601 36.822 155.601 40.26C155.601 42.132 154.431 43.68 152.451 44.076C152.865 44.382 153.315 44.814 154.143 45.66ZM158.614 35.958H172.294L169.882 39.09H165.58V48H161.854V39.09H156.202L158.614 35.958ZM179.779 35.76C185.629 35.76 188.581 37.668 188.581 41.97C188.581 46.272 185.629 48.198 179.779 48.198C173.911 48.198 170.977 46.272 170.977 41.97C170.977 37.668 173.911 35.76 179.779 35.76ZM179.779 45.066C183.523 45.066 184.873 44.562 184.873 41.97C184.873 39.378 183.523 38.892 179.779 38.892C176.035 38.892 174.685 39.378 174.685 41.97C174.685 44.562 176.035 45.066 179.779 45.066ZM204.971 45.66L207.185 48H202.199L199.517 44.814H193.793V48H190.067V41.844H200.543C201.695 41.844 202.595 41.322 202.595 40.494C202.595 39.558 201.821 39.09 200.543 39.09H190.067L192.497 35.958H200.237C202.973 35.958 206.429 36.822 206.429 40.26C206.429 42.132 205.259 43.68 203.279 44.076C203.693 44.382 204.143 44.814 204.971 45.66ZM233.793 48H219.789L222.039 44.904H225.063C225.783 44.904 226.629 44.904 227.205 44.94C226.881 44.508 226.377 43.77 225.981 43.194L223.821 40.008L218.169 48H213.759L221.481 37.11C221.985 36.408 222.723 35.76 223.893 35.76C225.009 35.76 225.747 36.354 226.269 37.11L233.793 48ZM238.541 35.958V48H234.815V35.958H238.541Z"
        fill="white" />
    <path d="M68.5099 52.0394L76.9208 66.0576H58.5496L68.5099 52.0394Z" fill="white" />
    <g filter="url(#filter0_d_2001_2075)">
        <path d="M68.4354 61.0406L68.5091 52.0394L58.5488 66.0576L68.4354 61.0406Z" fill="white" />
    </g>
    <g filter="url(#filter1_d_2001_2075)">
        <path d="M77.0668 66.2052L68.4345 61.0406L68.5083 52.0394L77.0668 66.2052Z" fill="white" />
    </g>
    <g filter="url(#filter2_d_2001_2075)">
        <path d="M43.672 7.04237L45.3742 27.0404L60.8195 34.9858L43.672 7.04237Z" fill="white" />
    </g>
    <g filter="url(#filter3_d_2001_2075)">
        <path d="M43.6711 7.03038L34.9783 21.7663L45.3741 27.0384L43.6711 7.03038Z" fill="white" />
    </g>
    <g filter="url(#filter4_d_2001_2075)">
        <path d="M43.964 26.2972L26.8233 35.1445L60.8199 34.9851L43.964 26.2972Z" fill="white" />
    </g>
    <g filter="url(#filter5_d_2001_2075)">
        <path d="M43.9665 26.2933L34.9875 21.7675L26.8234 35.1451L43.9665 26.2933Z" fill="white" />
    </g>
    <g filter="url(#filter6_d_2001_2075)">
        <path d="M55.879 58.468L66.7382 39.6455H44.8992L55.879 58.468Z" fill="white" />
        <g filter="url(#filter7_d_2001_2075)">
            <path d="M55.878 58.468L56.24 45.7387L44.8982 39.6455L55.878 58.468Z" fill="white" />
        </g>
        <g filter="url(#filter8_d_2001_2075)">
            <path d="M55.879 58.468L56.241 45.7387L66.7382 39.6455L55.879 58.468Z" fill="white" />
        </g>
    </g>
    <g filter="url(#filter9_d_2001_2075)">
        <path d="M36.0402 49.7538L26.8195 35.1466L8.22659 66.0601L36.0402 49.7538Z" fill="white" />
    </g>
    <g filter="url(#filter10_d_2001_2075)">
        <path d="M36.0405 49.7497L8.29914 65.9814L55.002 66.2027L36.0405 49.7497Z" fill="white" />
    </g>
    <g filter="url(#filter11_d_2001_2075)">
        <path d="M26.8184 35.1437L39.8038 40.751L43.1233 35.0705L26.8184 35.1437Z" fill="white" />
    </g>
    <g filter="url(#filter12_d_2001_2075)">
        <path d="M26.8171 35.1458L35.9519 49.7258L55.0019 66.2812L52.4976 58.9769L39.7892 40.7225L26.8171 35.1458Z"
            fill="white" />
    </g>
    <defs>
        <filter id="filter0_d_2001_2075" x="50.6555" y="42.1727" width="25.747" height="29.8049"
            filterUnits="userSpaceOnUse" color-interpolation-filters="sRGB">
            <feFlood flood-opacity="0" result="BackgroundImageFix" />
            <feColorMatrix in="SourceAlpha" type="matrix" values="0 0 0 0 0 0 0 0 0 0 0 0 0 0 0 0 0 0 127 0"
                result="hardAlpha" />
            <feOffset dy="-1.97333" />
            <feGaussianBlur stdDeviation="3.94667" />
            <feComposite in2="hardAlpha" operator="out" />
            <feColorMatrix type="matrix" values="0 0 0 0 0 0 0 0 0 0 0 0 0 0 0 0 0 0 0.25 0" />
            <feBlend mode="normal" in2="BackgroundImageFix" result="effect1_dropShadow_2001_2075" />
            <feBlend mode="normal" in="SourceGraphic" in2="effect1_dropShadow_2001_2075" result="shape" />
        </filter>
        <filter id="filter1_d_2001_2075" x="60.5412" y="42.1727" width="24.4189" height="29.9525"
            filterUnits="userSpaceOnUse" color-interpolation-filters="sRGB">
            <feFlood flood-opacity="0" result="BackgroundImageFix" />
            <feColorMatrix in="SourceAlpha" type="matrix" values="0 0 0 0 0 0 0 0 0 0 0 0 0 0 0 0 0 0 127 0"
                result="hardAlpha" />
            <feOffset dy="-1.97333" />
            <feGaussianBlur stdDeviation="3.94667" />
            <feComposite in2="hardAlpha" operator="out" />
            <feColorMatrix type="matrix" values="0 0 0 0 0 0 0 0 0 0 0 0 0 0 0 0 0 0 0.25 0" />
            <feBlend mode="normal" in2="BackgroundImageFix" result="effect1_dropShadow_2001_2075" />
            <feBlend mode="normal" in="SourceGraphic" in2="effect1_dropShadow_2001_2075" result="shape" />
        </filter>
        <filter id="filter2_d_2001_2075" x="35.7787" y="-2.8243" width="32.9341" height="43.7301"
            filterUnits="userSpaceOnUse" color-interpolation-filters="sRGB">
            <feFlood flood-opacity="0" result="BackgroundImageFix" />
            <feColorMatrix in="SourceAlpha" type="matrix" values="0 0 0 0 0 0 0 0 0 0 0 0 0 0 0 0 0 0 127 0"
                result="hardAlpha" />
            <feOffset dy="-1.97333" />
            <feGaussianBlur stdDeviation="3.94667" />
            <feComposite in2="hardAlpha" operator="out" />
            <feColorMatrix type="matrix" values="0 0 0 0 0 0 0 0 0 0 0 0 0 0 0 0 0 0 0.25 0" />
            <feBlend mode="normal" in2="BackgroundImageFix" result="effect1_dropShadow_2001_2075" />
            <feBlend mode="normal" in="SourceGraphic" in2="effect1_dropShadow_2001_2075" result="shape" />
        </filter>
        <filter id="filter3_d_2001_2075" x="27.0849" y="-2.83629" width="26.1825" height="35.7947"
            filterUnits="userSpaceOnUse" color-interpolation-filters="sRGB">
            <feFlood flood-opacity="0" result="BackgroundImageFix" />
            <feColorMatrix in="SourceAlpha" type="matrix" values="0 0 0 0 0 0 0 0 0 0 0 0 0 0 0 0 0 0 127 0"
                result="hardAlpha" />
            <feOffset dy="-1.97333" />
            <feGaussianBlur stdDeviation="3.94667" />
            <feComposite in2="hardAlpha" operator="out" />
            <feColorMatrix type="matrix" values="0 0 0 0 0 0 0 0 0 0 0 0 0 0 0 0 0 0 0.25 0" />
            <feBlend mode="normal" in2="BackgroundImageFix" result="effect1_dropShadow_2001_2075" />
            <feBlend mode="normal" in="SourceGraphic" in2="effect1_dropShadow_2001_2075" result="shape" />
        </filter>
        <filter id="filter4_d_2001_2075" x="18.93" y="16.4305" width="49.7832" height="24.634"
            filterUnits="userSpaceOnUse" color-interpolation-filters="sRGB">
            <feFlood flood-opacity="0" result="BackgroundImageFix" />
            <feColorMatrix in="SourceAlpha" type="matrix" values="0 0 0 0 0 0 0 0 0 0 0 0 0 0 0 0 0 0 127 0"
                result="hardAlpha" />
            <feOffset dy="-1.97333" />
            <feGaussianBlur stdDeviation="3.94667" />
            <feComposite in2="hardAlpha" operator="out" />
            <feColorMatrix type="matrix" values="0 0 0 0 0 0 0 0 0 0 0 0 0 0 0 0 0 0 0.25 0" />
            <feBlend mode="normal" in2="BackgroundImageFix" result="effect1_dropShadow_2001_2075" />
            <feBlend mode="normal" in="SourceGraphic" in2="effect1_dropShadow_2001_2075" result="shape" />
        </filter>
        <filter id="filter5_d_2001_2075" x="18.9301" y="11.9009" width="32.9297" height="29.1642"
            filterUnits="userSpaceOnUse" color-interpolation-filters="sRGB">
            <feFlood flood-opacity="0" result="BackgroundImageFix" />
            <feColorMatrix in="SourceAlpha" type="matrix" values="0 0 0 0 0 0 0 0 0 0 0 0 0 0 0 0 0 0 127 0"
                result="hardAlpha" />
            <feOffset dy="-1.97333" />
            <feGaussianBlur stdDeviation="3.94667" />
            <feComposite in2="hardAlpha" operator="out" />
            <feColorMatrix type="matrix" values="0 0 0 0 0 0 0 0 0 0 0 0 0 0 0 0 0 0 0.25 0" />
            <feBlend mode="normal" in2="BackgroundImageFix" result="effect1_dropShadow_2001_2075" />
            <feBlend mode="normal" in="SourceGraphic" in2="effect1_dropShadow_2001_2075" result="shape" />
        </filter>
        <filter id="filter6_d_2001_2075" x="37.0049" y="29.7788" width="37.6266" height="34.6092"
            filterUnits="userSpaceOnUse" color-interpolation-filters="sRGB">
            <feFlood flood-opacity="0" result="BackgroundImageFix" />
            <feColorMatrix in="SourceAlpha" type="matrix" values="0 0 0 0 0 0 0 0 0 0 0 0 0 0 0 0 0 0 127 0"
                result="hardAlpha" />
            <feOffset dy="-1.97333" />
            <feGaussianBlur stdDeviation="3.94667" />
            <feComposite in2="hardAlpha" operator="out" />
            <feColorMatrix type="matrix" values="0 0 0 0 0 0 0 0 0 0 0 0 0 0 0 0 0 0 0.25 0" />
            <feBlend mode="normal" in2="BackgroundImageFix" result="effect1_dropShadow_2001_2075" />
            <feBlend mode="normal" in="SourceGraphic" in2="effect1_dropShadow_2001_2075" result="shape" />
        </filter>
        <filter id="filter7_d_2001_2075" x="37.0049" y="29.7788" width="27.1284" height="34.6092"
            filterUnits="userSpaceOnUse" color-interpolation-filters="sRGB">
            <feFlood flood-opacity="0" result="BackgroundImageFix" />
            <feColorMatrix in="SourceAlpha" type="matrix" values="0 0 0 0 0 0 0 0 0 0 0 0 0 0 0 0 0 0 127 0"
                result="hardAlpha" />
            <feOffset dy="-1.97333" />
            <feGaussianBlur stdDeviation="3.94667" />
            <feComposite in2="hardAlpha" operator="out" />
            <feColorMatrix type="matrix" values="0 0 0 0 0 0 0 0 0 0 0 0 0 0 0 0 0 0 0.25 0" />
            <feBlend mode="normal" in2="BackgroundImageFix" result="effect1_dropShadow_2001_2075" />
            <feBlend mode="normal" in="SourceGraphic" in2="effect1_dropShadow_2001_2075" result="shape" />
        </filter>
        <filter id="filter8_d_2001_2075" x="47.9857" y="29.7788" width="26.6458" height="34.6092"
            filterUnits="userSpaceOnUse" color-interpolation-filters="sRGB">
            <feFlood flood-opacity="0" result="BackgroundImageFix" />
            <feColorMatrix in="SourceAlpha" type="matrix" values="0 0 0 0 0 0 0 0 0 0 0 0 0 0 0 0 0 0 127 0"
                result="hardAlpha" />
            <feOffset dy="-1.97333" />
            <feGaussianBlur stdDeviation="3.94667" />
            <feComposite in2="hardAlpha" operator="out" />
            <feColorMatrix type="matrix" values="0 0 0 0 0 0 0 0 0 0 0 0 0 0 0 0 0 0 0.25 0" />
            <feBlend mode="normal" in2="BackgroundImageFix" result="effect1_dropShadow_2001_2075" />
            <feBlend mode="normal" in="SourceGraphic" in2="effect1_dropShadow_2001_2075" result="shape" />
        </filter>
        <filter id="filter9_d_2001_2075" x="0.33325" y="25.2799" width="43.6003" height="46.7002"
            filterUnits="userSpaceOnUse" color-interpolation-filters="sRGB">
            <feFlood flood-opacity="0" result="BackgroundImageFix" />
            <feColorMatrix in="SourceAlpha" type="matrix" values="0 0 0 0 0 0 0 0 0 0 0 0 0 0 0 0 0 0 127 0"
                result="hardAlpha" />
            <feOffset dy="-1.97333" />
            <feGaussianBlur stdDeviation="3.94667" />
            <feComposite in2="hardAlpha" operator="out" />
            <feColorMatrix type="matrix" values="0 0 0 0 0 0 0 0 0 0 0 0 0 0 0 0 0 0 0.25 0" />
            <feBlend mode="normal" in2="BackgroundImageFix" result="effect1_dropShadow_2001_2075" />
            <feBlend mode="normal" in="SourceGraphic" in2="effect1_dropShadow_2001_2075" result="shape" />
        </filter>
        <filter id="filter10_d_2001_2075" x="0.405806" y="39.8831" width="62.4895" height="32.2397"
            filterUnits="userSpaceOnUse" color-interpolation-filters="sRGB">
            <feFlood flood-opacity="0" result="BackgroundImageFix" />
            <feColorMatrix in="SourceAlpha" type="matrix" values="0 0 0 0 0 0 0 0 0 0 0 0 0 0 0 0 0 0 127 0"
                result="hardAlpha" />
            <feOffset dy="-1.97333" />
            <feGaussianBlur stdDeviation="3.94667" />
            <feComposite in2="hardAlpha" operator="out" />
            <feColorMatrix type="matrix" values="0 0 0 0 0 0 0 0 0 0 0 0 0 0 0 0 0 0 0.25 0" />
            <feBlend mode="normal" in2="BackgroundImageFix" result="effect1_dropShadow_2001_2075" />
            <feBlend mode="normal" in="SourceGraphic" in2="effect1_dropShadow_2001_2075" result="shape" />
        </filter>
        <filter id="filter11_d_2001_2075" x="18.9251" y="25.2038" width="32.0916" height="21.4672"
            filterUnits="userSpaceOnUse" color-interpolation-filters="sRGB">
            <feFlood flood-opacity="0" result="BackgroundImageFix" />
            <feColorMatrix in="SourceAlpha" type="matrix" values="0 0 0 0 0 0 0 0 0 0 0 0 0 0 0 0 0 0 127 0"
                result="hardAlpha" />
            <feOffset dy="-1.97333" />
            <feGaussianBlur stdDeviation="3.94667" />
            <feComposite in2="hardAlpha" operator="out" />
            <feColorMatrix type="matrix" values="0 0 0 0 0 0 0 0 0 0 0 0 0 0 0 0 0 0 0.25 0" />
            <feBlend mode="normal" in2="BackgroundImageFix" result="effect1_dropShadow_2001_2075" />
            <feBlend mode="normal" in="SourceGraphic" in2="effect1_dropShadow_2001_2075" result="shape" />
        </filter>
        <filter id="filter12_d_2001_2075" x="18.9238" y="25.2791" width="43.9714" height="46.9221"
            filterUnits="userSpaceOnUse" color-interpolation-filters="sRGB">
            <feFlood flood-opacity="0" result="BackgroundImageFix" />
            <feColorMatrix in="SourceAlpha" type="matrix" values="0 0 0 0 0 0 0 0 0 0 0 0 0 0 0 0 0 0 127 0"
                result="hardAlpha" />
            <feOffset dy="-1.97333" />
            <feGaussianBlur stdDeviation="3.94667" />
            <feComposite in2="hardAlpha" operator="out" />
            <feColorMatrix type="matrix" values="0 0 0 0 0 0 0 0 0 0 0 0 0 0 0 0 0 0 0.25 0" />
            <feBlend mode="normal" in2="BackgroundImageFix" result="effect1_dropShadow_2001_2075" />
            <feBlend mode="normal" in="SourceGraphic" in2="effect1_dropShadow_2001_2075" result="shape" />
        </filter>
    </defs>
</svg>